<svg xmlns="http://www.w3.org/2000/svg" viewBox="0 0 206.71 77.85"><defs><style>.a{fill:none;stroke:#fff;stroke-miterlimit:10;stroke-width:4px;}.b{fill:#fff;}</style></defs><title>minabetyg</title><rect class="a" x="6.38" y="6.04" width="193.96" height="65.77"/><path class="b" d="M59.62,38.87c-.11-2.07-.24-4.57-.22-6.42h-.07c-.51,1.74-1.12,3.6-1.88,5.65l-2.63,7.22H53.38L51,38.23c-.71-2.1-1.3-4-1.72-5.78h0c0,1.85-.15,4.35-.29,6.58l-.4,6.38H46.69l1-14.87h2.45l2.54,7.19c.62,1.83,1.13,3.46,1.5,5h.07c.38-1.5.9-3.13,1.57-5l2.65-7.19h2.45l.93,14.87H60Z"/><path class="b" d="M66.75,30.53V45.4H64.83V30.53Z"/><path class="b" d="M70.11,45.4V30.53h2.1L77,38.06a42.12,42.12,0,0,1,2.67,4.83l0,0c-.18-2-.22-3.79-.22-6.11V30.53h1.81V45.4H79.33l-4.72-7.55a47.22,47.22,0,0,1-2.78-5l-.07,0c.11,1.88.15,3.66.15,6.13V45.4Z"/><path class="b" d="M87,40.73,85.49,45.4h-2l5.05-14.87h2.32L95.95,45.4H93.9l-1.59-4.68Zm4.88-1.5-1.46-4.28c-.33-1-.55-1.85-.77-2.71h0c-.22.88-.46,1.79-.75,2.69l-1.46,4.3Z"/><path class="b" d="M102.81,30.73a18.59,18.59,0,0,1,3.51-.31,6.15,6.15,0,0,1,4.08,1.08,3.12,3.12,0,0,1,1.24,2.63,3.53,3.53,0,0,1-2.52,3.26v0a3.83,3.83,0,0,1,3.07,3.73,4,4,0,0,1-1.26,3c-1,.95-2.71,1.39-5.14,1.39a22.5,22.5,0,0,1-3-.18Zm1.92,6.09h1.74c2,0,3.22-1.06,3.22-2.49,0-1.74-1.32-2.43-3.27-2.43a8.22,8.22,0,0,0-1.7.13Zm0,7.13a10.23,10.23,0,0,0,1.61.09c2,0,3.82-.73,3.82-2.89s-1.74-2.87-3.84-2.87h-1.59Z"/><path class="b" d="M122.48,38.43H116.7v5.36h6.44V45.4h-8.36V30.53h8v1.61H116.7v4.7h5.78Z"/><path class="b" d="M128.81,32.17h-4.52V30.53h11v1.63h-4.54V45.4h-1.94Z"/><path class="b" d="M140.88,45.4V39.09l-4.7-8.56h2.18l2.1,4.1c.57,1.13,1,2,1.48,3.07h0c.42-1,.93-1.94,1.5-3.07l2.14-4.1h2.18l-5,8.54V45.4Z"/><path class="b" d="M160,44.74a13.86,13.86,0,0,1-4.57.82,7.64,7.64,0,0,1-5.56-2,7.65,7.65,0,0,1-2.07-5.54c0-4.43,3.07-7.68,8.05-7.68a9.2,9.2,0,0,1,3.71.68l-.46,1.57a7.72,7.72,0,0,0-3.29-.64c-3.62,0-6,2.25-6,6s2.27,6,5.74,6a6.26,6.26,0,0,0,2.56-.4V39.14h-3V37.59H160Z"/></svg>