<svg xmlns="http://www.w3.org/2000/svg" viewBox="0 0 206.71 77.85"><defs><style>.a{fill:none;stroke:#fff;stroke-miterlimit:10;stroke-width:4px;}.b{fill:#fff;}</style></defs><title>kommandeavslutade</title><rect class="a" x="4.7" y="5.37" width="193.96" height="65.77"/><path class="b" d="M22,17.57h1.92v7.17H24c.4-.57.79-1.1,1.17-1.59l4.55-5.58h2.38l-5.38,6.31,5.8,8.56H30.22l-4.9-7.3-1.41,1.63v5.67H22Z"/><path class="b" d="M46.29,24.85c0,5.12-3.11,7.83-6.91,7.83s-6.69-3-6.69-7.55c0-4.72,2.93-7.81,6.91-7.81S46.29,20.44,46.29,24.85Zm-11.54.24c0,3.18,1.72,6,4.74,6s4.77-2.8,4.77-6.18c0-3-1.54-6-4.74-6S34.75,21.83,34.75,25.09Z"/><path class="b" d="M61.32,25.91c-.11-2.07-.24-4.57-.22-6.42H61c-.51,1.74-1.12,3.6-1.88,5.65l-2.63,7.22H55.08l-2.41-7.08c-.71-2.1-1.3-4-1.72-5.78h0c0,1.85-.15,4.35-.29,6.58l-.4,6.38H48.39l1-14.87h2.45l2.54,7.19c.62,1.83,1.13,3.46,1.5,5H56c.38-1.5.9-3.13,1.57-5l2.65-7.19h2.45l.93,14.87H61.69Z"/><path class="b" d="M79.06,25.91c-.11-2.07-.24-4.57-.22-6.42h-.07c-.51,1.74-1.12,3.6-1.88,5.65l-2.63,7.22H72.82l-2.41-7.08c-.71-2.1-1.3-4-1.72-5.78h0c0,1.85-.15,4.35-.29,6.58L68,32.44H66.13l1-14.87h2.45l2.54,7.19c.62,1.83,1.13,3.46,1.5,5h.07c.38-1.5.9-3.13,1.57-5l2.65-7.19h2.45l.93,14.87H79.44Z"/><path class="b" d="M86.46,27.76l-1.54,4.68h-2L88,17.57H90.3l5.07,14.87H93.32l-1.59-4.68Zm4.88-1.5L89.88,22c-.33-1-.55-1.85-.77-2.71h0c-.22.88-.46,1.79-.75,2.69l-1.46,4.3Z"/><path class="b" d="M97.56,32.44V17.57h2.1l4.77,7.52a42.12,42.12,0,0,1,2.67,4.83l0,0c-.18-2-.22-3.79-.22-6.11V17.57h1.81V32.44h-1.94l-4.72-7.55a47.22,47.22,0,0,1-2.78-5l-.07,0c.11,1.88.15,3.66.15,6.13v6.35Z"/><path class="b" d="M112.08,17.77a27.47,27.47,0,0,1,4.08-.31c2.76,0,4.72.64,6,1.85a6.85,6.85,0,0,1,2.1,5.34,7.86,7.86,0,0,1-2.14,5.78c-1.39,1.39-3.69,2.14-6.58,2.14a31,31,0,0,1-3.49-.18ZM114,30.92a12.16,12.16,0,0,0,1.94.11c4.1,0,6.33-2.29,6.33-6.31,0-3.51-2-5.74-6-5.74a10.91,10.91,0,0,0-2.25.2Z"/><path class="b" d="M134.48,25.47H128.7v5.36h6.44v1.61h-8.36V17.57h8v1.61H128.7v4.7h5.78Z"/><path class="b" d="M155,24.85c0,5.12-3.11,7.83-6.91,7.83s-6.69-3-6.69-7.55c0-4.72,2.93-7.81,6.91-7.81S155,20.44,155,24.85Zm-11.54.24c0,3.18,1.72,6,4.74,6s4.77-2.8,4.77-6.18c0-3-1.54-6-4.74-6S143.49,21.83,143.49,25.09Z"/><path class="b" d="M167.92,32a9.54,9.54,0,0,1-3.93.71c-4.19,0-7.35-2.65-7.35-7.52a7.4,7.4,0,0,1,7.77-7.81,8,8,0,0,1,3.53.66l-.46,1.57a7,7,0,0,0-3-.62c-3.49,0-5.8,2.23-5.8,6.13,0,3.64,2.1,6,5.71,6a7.68,7.68,0,0,0,3.13-.62Z"/><path class="b" d="M172.25,17.57v6.22h7.19V17.57h1.94V32.44h-1.94v-7h-7.19v7h-1.92V17.57Z"/><path class="b" d="M13.65,54.25l-1.54,4.68h-2l5.05-14.87h2.32l5.07,14.87H20.51l-1.59-4.68Zm4.88-1.5-1.46-4.28c-.33-1-.55-1.85-.77-2.71h0c-.22.88-.46,1.79-.75,2.69L14,52.75Z"/><path class="b" d="M26.85,58.93,22,44.05h2.07l2.32,7.33c.64,2,1.19,3.82,1.59,5.56h0c.42-1.72,1-3.6,1.7-5.54l2.52-7.35h2.05L29,58.93Z"/><path class="b" d="M35.63,56.59a6.8,6.8,0,0,0,3.44,1c2,0,3.11-1,3.11-2.54s-.79-2.18-2.8-3c-2.43-.86-3.93-2.12-3.93-4.21,0-2.32,1.92-4,4.81-4a6.76,6.76,0,0,1,3.29.73L43,46.11a5.92,5.92,0,0,0-2.82-.71c-2,0-2.8,1.21-2.8,2.23,0,1.39.9,2.07,3,2.87,2.52,1,3.79,2.18,3.79,4.37s-1.7,4.28-5.21,4.28a7.68,7.68,0,0,1-3.79-.95Z"/><path class="b" d="M46.78,44.05H48.7V57.32h6.35v1.61H46.78Z"/><path class="b" d="M58.32,44.05v8.8c0,3.33,1.48,4.74,3.46,4.74,2.21,0,3.62-1.46,3.62-4.74v-8.8h1.94v8.67c0,4.57-2.4,6.44-5.63,6.44-3,0-5.34-1.74-5.34-6.35V44.05Z"/><path class="b" d="M73.5,45.69H69V44.05H80v1.63H75.45V58.93H73.5Z"/><path class="b" d="M82.4,54.25l-1.54,4.68h-2l5.05-14.87h2.32l5.07,14.87H89.26l-1.59-4.68Zm4.88-1.5-1.46-4.28c-.33-1-.55-1.85-.77-2.71h0c-.22.88-.46,1.79-.75,2.69l-1.46,4.3Z"/><path class="b" d="M93.5,44.25a27.47,27.47,0,0,1,4.08-.31c2.76,0,4.72.64,6,1.85a6.85,6.85,0,0,1,2.1,5.34,7.86,7.86,0,0,1-2.14,5.78c-1.39,1.39-3.69,2.14-6.58,2.14a31,31,0,0,1-3.49-.18ZM95.42,57.4a12.16,12.16,0,0,0,1.94.11c4.1,0,6.33-2.29,6.33-6.31,0-3.51-2-5.74-6-5.74a10.91,10.91,0,0,0-2.25.2Z"/><path class="b" d="M115.9,52h-5.78v5.36h6.44v1.61H108.2V44.05h8v1.61h-6.11v4.7h5.78Z"/><path class="b" d="M123.74,44.05h1.92v7.17h.07c.4-.57.79-1.1,1.17-1.59l4.55-5.58h2.38l-5.38,6.31,5.8,8.56H132l-4.9-7.3-1.41,1.63v5.67h-1.92Z"/><path class="b" d="M137.62,44.05v8.8c0,3.33,1.48,4.74,3.46,4.74,2.21,0,3.62-1.46,3.62-4.74v-8.8h1.94v8.67c0,4.57-2.4,6.44-5.63,6.44-3,0-5.34-1.74-5.34-6.35V44.05Z"/><path class="b" d="M150,44.25a20,20,0,0,1,3.69-.31c2.05,0,3.38.38,4.3,1.21A3.7,3.7,0,0,1,159.13,48a3.91,3.91,0,0,1-2.8,3.79v.07c1.15.4,1.83,1.46,2.18,3a23.63,23.63,0,0,0,1.15,4.08h-2a19.28,19.28,0,0,1-1-3.55c-.44-2.05-1.24-2.82-3-2.89H151.9v6.44H150ZM151.9,51h2c2.05,0,3.35-1.12,3.35-2.82,0-1.92-1.39-2.76-3.42-2.78a7.93,7.93,0,0,0-1.9.18Z"/><path class="b" d="M161.59,56.59a6.8,6.8,0,0,0,3.44,1c2,0,3.11-1,3.11-2.54s-.79-2.18-2.8-3c-2.43-.86-3.93-2.12-3.93-4.21,0-2.32,1.92-4,4.81-4a6.76,6.76,0,0,1,3.29.73L169,46.11a5.92,5.92,0,0,0-2.82-.71c-2,0-2.8,1.21-2.8,2.23,0,1.39.9,2.07,3,2.87,2.52,1,3.79,2.18,3.79,4.37s-1.7,4.28-5.21,4.28a7.68,7.68,0,0,1-3.79-.95Z"/><path class="b" d="M180.43,52h-5.78v5.36h6.44v1.61h-8.36V44.05h8v1.61h-6.11v4.7h5.78Z"/><path class="b" d="M183.59,44.25a20,20,0,0,1,3.69-.31c2.05,0,3.38.38,4.3,1.21A3.7,3.7,0,0,1,192.75,48a3.91,3.91,0,0,1-2.8,3.79v.07c1.15.4,1.83,1.46,2.18,3a23.63,23.63,0,0,0,1.15,4.08h-2a19.28,19.28,0,0,1-1-3.55c-.44-2.05-1.24-2.82-3-2.89h-1.81v6.44h-1.92ZM185.51,51h2c2.05,0,3.35-1.12,3.35-2.82,0-1.92-1.39-2.76-3.42-2.78a7.93,7.93,0,0,0-1.9.18Z"/></svg>